<svg width="132" height="193" viewBox="0 0 132 193" fill="none" xmlns="http://www.w3.org/2000/svg">
<g opacity="0.4">
<path d="M3.63024 7.26024C4.59636 7.27141 5.52617 6.89255 6.20936 6.20936C6.89255 5.52617 7.27141 4.59636 7.26024 3.63024C7.27141 2.66412 6.89255 1.73431 6.20936 1.05112C5.52617 0.367927 4.59636 -0.0109299 3.63024 0.00024018C2.66412 -0.0109299 1.73431 0.367927 1.05112 1.05112C0.367927 1.73431 -0.0109299 2.66412 0.00024018 3.63024C-0.0109299 4.59636 0.367927 5.52617 1.05112 6.20936C1.73431 6.89255 2.66412 7.27141 3.63024 7.26024Z" fill="white"/>
<path d="M28.3802 7.26024C29.3464 7.27141 30.2762 6.89256 30.9594 6.20936C31.6426 5.52617 32.0214 4.59636 32.0102 3.63024C32.0102 1.62545 30.385 0.000244141 28.3802 0.000244141C26.3754 0.000244141 24.7502 1.62545 24.7502 3.63024C24.7391 4.59636 25.1179 5.52617 25.8011 6.20936C26.4843 6.89256 27.4141 7.27141 28.3802 7.26024Z" fill="white"/>
<path d="M53.1302 7.26024C54.0964 7.27141 55.0262 6.89256 55.7094 6.20936C56.3926 5.52617 56.7714 4.59636 56.7602 3.63024C56.7602 1.62545 55.135 0.000244141 53.1302 0.000244141C51.1254 0.000244141 49.5002 1.62545 49.5002 3.63024C49.4891 4.59636 49.8679 5.52617 50.5511 6.20936C51.2343 6.89256 52.1641 7.27141 53.1302 7.26024Z" fill="white"/>
<path d="M77.8802 7.26024C78.8464 7.27141 79.7762 6.89256 80.4594 6.20936C81.1426 5.52617 81.5214 4.59636 81.5102 3.63024C81.5102 1.62545 79.885 0.000244141 77.8802 0.000244141C75.8754 0.000244141 74.2502 1.62545 74.2502 3.63024C74.2391 4.59636 74.6179 5.52617 75.3011 6.20936C75.9843 6.89256 76.9141 7.27141 77.8802 7.26024Z" fill="white"/>
<path d="M102.63 7.26024C103.596 7.27141 104.526 6.89256 105.209 6.20936C105.893 5.52617 106.271 4.59636 106.26 3.63024C106.26 1.62545 104.635 0.000244141 102.63 0.000244141C100.625 0.000244141 99.0002 1.62545 99.0002 3.63024C98.9891 4.59636 99.3679 5.52617 100.051 6.20936C100.734 6.89256 101.664 7.27141 102.63 7.26024Z" fill="white"/>
<path d="M127.38 7.26024C128.346 7.27141 129.276 6.89256 129.959 6.20936C130.643 5.52617 131.021 4.59636 131.01 3.63024C131.01 1.62545 129.385 0.000244141 127.38 0.000244141C125.375 0.000244141 123.75 1.62545 123.75 3.63024C123.739 4.59636 124.118 5.52617 124.801 6.20936C125.484 6.89256 126.414 7.27141 127.38 7.26024Z" fill="white"/>
<path d="M3.63024 32.0102C5.63504 32.0102 7.26024 30.385 7.26024 28.3802C7.26024 26.3755 5.63504 24.7502 3.63024 24.7502C1.62545 24.7502 0.000244141 26.3755 0.000244141 28.3802C0.000244141 30.385 1.62545 32.0102 3.63024 32.0102Z" fill="white"/>
<path d="M28.3802 32.0102C30.385 32.0102 32.0102 30.385 32.0102 28.3802C32.0102 26.3755 30.385 24.7502 28.3802 24.7502C26.3754 24.7502 24.7502 26.3755 24.7502 28.3802C24.7391 29.3464 25.1179 30.2762 25.8011 30.9594C26.4843 31.6426 27.4141 32.0214 28.3802 32.0102Z" fill="white"/>
<path d="M53.1302 32.0102C55.135 32.0102 56.7602 30.385 56.7602 28.3802C56.7602 26.3755 55.135 24.7502 53.1302 24.7502C51.1254 24.7502 49.5002 26.3755 49.5002 28.3802C49.4891 29.3464 49.8679 30.2762 50.5511 30.9594C51.2343 31.6426 52.1641 32.0214 53.1302 32.0102Z" fill="white"/>
<path d="M77.8802 32.0102C79.885 32.0102 81.5102 30.385 81.5102 28.3802C81.5102 26.3755 79.885 24.7502 77.8802 24.7502C75.8754 24.7502 74.2502 26.3755 74.2502 28.3802C74.2391 29.3464 74.6179 30.2762 75.3011 30.9594C75.9843 31.6426 76.9141 32.0214 77.8802 32.0102Z" fill="white"/>
<path d="M102.63 32.0102C104.635 32.0102 106.26 30.385 106.26 28.3802C106.26 26.3755 104.635 24.7502 102.63 24.7502C100.625 24.7502 99.0002 26.3755 99.0002 28.3802C98.9891 29.3464 99.3679 30.2762 100.051 30.9594C100.734 31.6426 101.664 32.0214 102.63 32.0102Z" fill="white"/>
<path d="M127.38 32.0102C129.385 32.0102 131.01 30.385 131.01 28.3802C131.01 26.3755 129.385 24.7502 127.38 24.7502C125.375 24.7502 123.75 26.3755 123.75 28.3802C123.739 29.3464 124.118 30.2762 124.801 30.9594C125.484 31.6426 126.414 32.0214 127.38 32.0102Z" fill="white"/>
<path d="M3.63024 56.7602C5.63504 56.7602 7.26024 55.135 7.26024 53.1302C7.26024 51.1255 5.63504 49.5002 3.63024 49.5002C1.62545 49.5002 0.000244141 51.1255 0.000244141 53.1302C0.000244141 55.135 1.62545 56.7602 3.63024 56.7602Z" fill="white"/>
<path d="M28.3802 56.7602C29.8484 56.7602 31.1721 55.8758 31.7339 54.5194C32.2958 53.1629 31.9852 51.6016 30.947 50.5634C29.9089 49.5253 28.3475 49.2147 26.9911 49.7766C25.6347 50.3384 24.7502 51.662 24.7502 53.1302C24.7391 54.0964 25.1179 55.0262 25.8011 55.7094C26.4843 56.3926 27.4141 56.7714 28.3802 56.7602Z" fill="white"/>
<path d="M53.1302 56.7602C55.135 56.7602 56.7602 55.135 56.7602 53.1302C56.7602 51.1255 55.135 49.5002 53.1302 49.5002C51.1254 49.5002 49.5002 51.1255 49.5002 53.1302C49.4891 54.0964 49.8679 55.0262 50.5511 55.7094C51.2343 56.3926 52.1641 56.7714 53.1302 56.7602Z" fill="white"/>
<path d="M77.8802 56.7602C79.885 56.7602 81.5102 55.135 81.5102 53.1302C81.5102 51.1255 79.885 49.5002 77.8802 49.5002C75.8754 49.5002 74.2502 51.1255 74.2502 53.1302C74.2391 54.0964 74.6179 55.0262 75.3011 55.7094C75.9843 56.3926 76.9141 56.7714 77.8802 56.7602Z" fill="white"/>
<path d="M102.63 56.7602C104.635 56.7602 106.26 55.135 106.26 53.1302C106.26 51.1255 104.635 49.5002 102.63 49.5002C100.625 49.5002 99.0002 51.1255 99.0002 53.1302C98.9891 54.0964 99.3679 55.0262 100.051 55.7094C100.734 56.3926 101.664 56.7714 102.63 56.7602Z" fill="white"/>
<path d="M127.38 56.7602C129.385 56.7602 131.01 55.135 131.01 53.1302C131.01 51.1255 129.385 49.5002 127.38 49.5002C125.375 49.5002 123.75 51.1255 123.75 53.1302C123.739 54.0964 124.118 55.0262 124.801 55.7094C125.484 56.3926 126.414 56.7714 127.38 56.7602Z" fill="white"/>
<path d="M3.63024 81.5102C5.63504 81.5102 7.26024 79.885 7.26024 77.8802C7.26024 75.8755 5.63504 74.2502 3.63024 74.2502C1.62545 74.2502 0.000244141 75.8755 0.000244141 77.8802C0.000244141 79.885 1.62545 81.5102 3.63024 81.5102Z" fill="white"/>
<path d="M28.3802 81.5102C30.385 81.5102 32.0102 79.885 32.0102 77.8802C32.0102 75.8755 30.385 74.2502 28.3802 74.2502C26.3754 74.2502 24.7502 75.8755 24.7502 77.8802C24.7391 78.8464 25.1179 79.7762 25.8011 80.4594C26.4843 81.1426 27.4141 81.5214 28.3802 81.5102Z" fill="white"/>
<path d="M53.1302 81.5102C55.135 81.5102 56.7602 79.885 56.7602 77.8802C56.7602 75.8755 55.135 74.2502 53.1302 74.2502C51.1254 74.2502 49.5002 75.8755 49.5002 77.8802C49.4891 78.8464 49.8679 79.7762 50.5511 80.4594C51.2343 81.1426 52.1641 81.5214 53.1302 81.5102Z" fill="white"/>
<path d="M77.8802 81.5102C79.885 81.5102 81.5102 79.885 81.5102 77.8802C81.5102 75.8755 79.885 74.2502 77.8802 74.2502C75.8754 74.2502 74.2502 75.8755 74.2502 77.8802C74.2391 78.8464 74.6179 79.7762 75.3011 80.4594C75.9843 81.1426 76.9141 81.5214 77.8802 81.5102Z" fill="white"/>
<path d="M102.63 81.5102C104.635 81.5102 106.26 79.885 106.26 77.8802C106.26 75.8755 104.635 74.2502 102.63 74.2502C100.625 74.2502 99.0002 75.8755 99.0002 77.8802C98.9891 78.8464 99.3679 79.7762 100.051 80.4594C100.734 81.1426 101.664 81.5214 102.63 81.5102Z" fill="white"/>
<path d="M127.38 81.5102C129.385 81.5102 131.01 79.885 131.01 77.8802C131.01 75.8755 129.385 74.2502 127.38 74.2502C125.375 74.2502 123.75 75.8755 123.75 77.8802C123.739 78.8464 124.118 79.7762 124.801 80.4594C125.484 81.1426 126.414 81.5214 127.38 81.5102Z" fill="white"/>
<path d="M3.63024 106.26C5.63504 106.26 7.26024 104.635 7.26024 102.63C7.26024 100.625 5.63504 99.0002 3.63024 99.0002C1.62545 99.0002 0.000244141 100.625 0.000244141 102.63C0.000244141 104.635 1.62545 106.26 3.63024 106.26Z" fill="white"/>
<path d="M28.3802 106.26C30.385 106.26 32.0102 104.635 32.0102 102.63C32.0102 100.625 30.385 99.0002 28.3802 99.0002C26.3754 99.0002 24.7502 100.625 24.7502 102.63C24.7391 103.596 25.1179 104.526 25.8011 105.209C26.4843 105.893 27.4141 106.271 28.3802 106.26Z" fill="white"/>
<path d="M53.1302 106.26C55.135 106.26 56.7602 104.635 56.7602 102.63C56.7602 100.625 55.135 99.0002 53.1302 99.0002C51.1254 99.0002 49.5002 100.625 49.5002 102.63C49.4891 103.596 49.8679 104.526 50.5511 105.209C51.2343 105.893 52.1641 106.271 53.1302 106.26Z" fill="white"/>
<path d="M77.8802 106.26C79.885 106.26 81.5102 104.635 81.5102 102.63C81.5102 100.625 79.885 99.0002 77.8802 99.0002C75.8754 99.0002 74.2502 100.625 74.2502 102.63C74.2391 103.596 74.6179 104.526 75.3011 105.209C75.9843 105.893 76.9141 106.271 77.8802 106.26Z" fill="white"/>
<path d="M102.63 106.26C104.635 106.26 106.26 104.635 106.26 102.63C106.26 100.625 104.635 99.0002 102.63 99.0002C100.625 99.0002 99.0002 100.625 99.0002 102.63C98.9891 103.596 99.3679 104.526 100.051 105.209C100.734 105.893 101.664 106.271 102.63 106.26Z" fill="white"/>
<path d="M127.38 106.26C129.385 106.26 131.01 104.635 131.01 102.63C131.01 100.625 129.385 99.0002 127.38 99.0002C125.375 99.0002 123.75 100.625 123.75 102.63C123.739 103.596 124.118 104.526 124.801 105.209C125.484 105.893 126.414 106.271 127.38 106.26Z" fill="white"/>
<path d="M3.63024 131.01C5.63504 131.01 7.26024 129.385 7.26024 127.38C7.26024 125.375 5.63504 123.75 3.63024 123.75C1.62545 123.75 0.000244141 125.375 0.000244141 127.38C0.000244141 129.385 1.62545 131.01 3.63024 131.01Z" fill="white"/>
<path d="M28.3802 131.01C30.385 131.01 32.0102 129.385 32.0102 127.38C32.0102 125.375 30.385 123.75 28.3802 123.75C26.3754 123.75 24.7502 125.375 24.7502 127.38C24.7391 128.346 25.1179 129.276 25.8011 129.959C26.4843 130.643 27.4141 131.021 28.3802 131.01Z" fill="white"/>
<path d="M53.1302 131.01C55.135 131.01 56.7602 129.385 56.7602 127.38C56.7602 125.375 55.135 123.75 53.1302 123.75C51.1254 123.75 49.5002 125.375 49.5002 127.38C49.4891 128.346 49.8679 129.276 50.5511 129.959C51.2343 130.643 52.1641 131.021 53.1302 131.01Z" fill="white"/>
<path d="M77.8802 131.01C79.885 131.01 81.5102 129.385 81.5102 127.38C81.5102 125.375 79.885 123.75 77.8802 123.75C75.8754 123.75 74.2502 125.375 74.2502 127.38C74.2391 128.346 74.6179 129.276 75.3011 129.959C75.9843 130.643 76.9141 131.021 77.8802 131.01Z" fill="white"/>
<path d="M102.63 131.01C104.635 131.01 106.26 129.385 106.26 127.38C106.26 125.375 104.635 123.75 102.63 123.75C100.625 123.75 99.0002 125.375 99.0002 127.38C98.9891 128.346 99.3679 129.276 100.051 129.959C100.734 130.643 101.664 131.021 102.63 131.01Z" fill="white"/>
<path d="M127.38 131.01C129.385 131.01 131.01 129.385 131.01 127.38C131.01 125.375 129.385 123.75 127.38 123.75C125.375 123.75 123.75 125.375 123.75 127.38C123.739 128.346 124.118 129.276 124.801 129.959C125.484 130.643 126.414 131.021 127.38 131.01Z" fill="white"/>
<path d="M3.63024 155.76C5.63504 155.76 7.26024 154.135 7.26024 152.13C7.26024 150.125 5.63504 148.5 3.63024 148.5C1.62545 148.5 0.000244141 150.125 0.000244141 152.13C0.000244141 154.135 1.62545 155.76 3.63024 155.76Z" fill="white"/>
<path d="M28.3802 155.76C30.385 155.76 32.0102 154.135 32.0102 152.13C32.0102 150.125 30.385 148.5 28.3802 148.5C26.3754 148.5 24.7502 150.125 24.7502 152.13C24.7391 153.096 25.1179 154.026 25.8011 154.709C26.4843 155.393 27.4141 155.771 28.3802 155.76Z" fill="white"/>
<path d="M53.1302 155.76C55.135 155.76 56.7602 154.135 56.7602 152.13C56.7602 150.125 55.135 148.5 53.1302 148.5C51.1254 148.5 49.5002 150.125 49.5002 152.13C49.4891 153.096 49.8679 154.026 50.5511 154.709C51.2343 155.393 52.1641 155.771 53.1302 155.76Z" fill="white"/>
<path d="M77.8802 155.76C79.885 155.76 81.5102 154.135 81.5102 152.13C81.5102 150.125 79.885 148.5 77.8802 148.5C75.8754 148.5 74.2502 150.125 74.2502 152.13C74.2391 153.096 74.6179 154.026 75.3011 154.709C75.9843 155.393 76.9141 155.771 77.8802 155.76Z" fill="white"/>
<path d="M102.63 155.76C104.635 155.76 106.26 154.135 106.26 152.13C106.26 150.125 104.635 148.5 102.63 148.5C100.625 148.5 99.0002 150.125 99.0002 152.13C98.9891 153.096 99.3679 154.026 100.051 154.709C100.734 155.393 101.664 155.771 102.63 155.76Z" fill="white"/>
<path d="M127.38 155.76C129.385 155.76 131.01 154.135 131.01 152.13C131.01 150.125 129.385 148.5 127.38 148.5C125.375 148.5 123.75 150.125 123.75 152.13C123.739 153.096 124.118 154.026 124.801 154.709C125.484 155.393 126.414 155.771 127.38 155.76Z" fill="white"/>
<path d="M3.63024 180.51C5.63504 180.51 7.26024 178.885 7.26024 176.88C7.26024 174.875 5.63504 173.25 3.63024 173.25C1.62545 173.25 0.000244141 174.875 0.000244141 176.88C0.000244141 178.885 1.62545 180.51 3.63024 180.51Z" fill="white"/>
<path d="M28.3802 180.51C30.385 180.51 32.0102 178.885 32.0102 176.88C32.0102 174.875 30.385 173.25 28.3802 173.25C26.3754 173.25 24.7502 174.875 24.7502 176.88C24.7391 177.846 25.1179 178.776 25.8011 179.459C26.4843 180.143 27.4141 180.521 28.3802 180.51Z" fill="white"/>
<path d="M53.1302 180.51C55.135 180.51 56.7602 178.885 56.7602 176.88C56.7602 174.875 55.135 173.25 53.1302 173.25C51.1254 173.25 49.5002 174.875 49.5002 176.88C49.4891 177.846 49.8679 178.776 50.5511 179.459C51.2343 180.143 52.1641 180.521 53.1302 180.51Z" fill="white"/>
<path d="M77.8802 180.51C79.885 180.51 81.5102 178.885 81.5102 176.88C81.5102 174.875 79.885 173.25 77.8802 173.25C75.8754 173.25 74.2502 174.875 74.2502 176.88C74.2391 177.846 74.6179 178.776 75.3011 179.459C75.9843 180.143 76.9141 180.521 77.8802 180.51Z" fill="white"/>
<path d="M102.63 180.51C104.635 180.51 106.26 178.885 106.26 176.88C106.26 174.875 104.635 173.25 102.63 173.25C100.625 173.25 99.0002 174.875 99.0002 176.88C98.9891 177.846 99.3679 178.776 100.051 179.459C100.734 180.143 101.664 180.521 102.63 180.51Z" fill="white"/>
<path d="M127.38 180.51C129.385 180.51 131.01 178.885 131.01 176.88C131.01 174.875 129.385 173.25 127.38 173.25C125.375 173.25 123.75 174.875 123.75 176.88C123.739 177.846 124.118 178.776 124.801 179.459C125.484 180.143 126.414 180.521 127.38 180.51Z" fill="white"/>
</g>
</svg>
